<?xml version="1.0" standalone="no"?>
<!DOCTYPE svg PUBLIC "-//W3C//DTD SVG 20010904//EN"
 "http://www.w3.org/TR/2001/REC-SVG-20010904/DTD/svg10.dtd">
<svg version="1.0" xmlns="http://www.w3.org/2000/svg"
 width="707.000000pt" height="707.000000pt" viewBox="0 0 707.000000 707.000000"
 preserveAspectRatio="xMidYMid meet">
<metadata>
Created by potrace 1.11, written by Peter Selinger 2001-2013
</metadata>
<g transform="translate(0.000000,707.000000) scale(0.100000,-0.100000)"
fill="#000000" stroke="none">
<path d="M3308 7066 c-1 -2 -37 -6 -78 -9 -146 -12 -392 -52 -510 -82 -138
-35 -192 -51 -285 -81 -60 -20 -115 -41 -122 -46 -7 -5 -17 -7 -22 -4 -5 4
-12 2 -15 -3 -3 -5 -17 -12 -31 -15 -14 -4 -49 -17 -78 -30 -28 -13 -79 -36
-112 -51 -33 -15 -118 -58 -190 -96 -120 -64 -150 -81 -179 -101 -6 -4 -63
-42 -126 -84 -136 -90 -320 -232 -320 -247 0 -6 -3 -8 -6 -4 -6 6 -78 -60
-213 -195 -120 -121 -146 -150 -256 -288 -20 -25 -43 -53 -51 -63 -25 -31
-178 -259 -209 -312 -16 -27 -37 -63 -47 -80 -70 -120 -239 -490 -253 -554 -2
-9 -13 -43 -25 -76 -12 -33 -23 -67 -25 -75 -2 -8 -11 -40 -20 -70 -9 -30 -18
-62 -20 -70 -7 -22 -23 -92 -29 -120 -3 -14 -8 -36 -11 -50 -8 -34 -34 -185
-41 -240 -3 -25 -8 -56 -9 -70 -28 -195 -27 -622 1 -845 5 -41 21 -145 28
-180 2 -11 7 -40 11 -65 4 -25 13 -70 21 -100 8 -30 17 -67 19 -82 3 -15 10
-40 16 -55 6 -15 10 -30 10 -33 -1 -9 21 -84 35 -123 8 -20 14 -40 15 -45 1
-4 5 -17 10 -30 5 -13 9 -27 9 -32 0 -5 6 -24 14 -42 8 -18 21 -49 30 -70 9
-20 16 -39 16 -43 0 -9 20 -52 101 -220 83 -172 121 -238 218 -385 42 -63 78
-119 80 -125 2 -5 9 -15 15 -21 6 -6 25 -28 41 -49 178 -228 293 -352 474
-513 157 -139 167 -146 358 -278 173 -119 393 -241 553 -309 36 -15 83 -35
105 -45 43 -20 150 -60 175 -65 8 -2 41 -13 73 -25 49 -17 130 -41 187 -55 8
-2 35 -8 60 -14 72 -18 84 -21 110 -26 14 -3 36 -7 50 -10 40 -8 152 -27 185
-30 17 -2 44 -6 60 -9 174 -32 705 -27 922 8 21 4 54 9 73 11 19 3 46 7 60 10
14 3 39 8 55 10 111 20 469 120 550 154 110 47 181 76 185 76 3 0 66 30 140
67 146 71 278 147 378 215 35 24 65 43 67 43 5 0 131 92 161 118 11 9 35 28
53 42 180 139 422 384 571 578 14 18 35 45 47 60 13 15 23 30 23 34 0 4 10 16
22 28 12 11 18 20 12 20 -5 0 -4 4 2 8 16 10 114 158 114 171 0 6 4 11 9 11 5
0 13 10 17 22 3 12 22 45 41 75 18 29 36 61 40 71 3 9 16 31 27 47 12 17 20
31 19 32 -1 2 20 49 46 105 76 161 189 476 216 598 1 8 8 33 14 55 14 55 44
203 57 285 3 19 8 49 11 65 34 193 38 709 8 905 -2 14 -7 48 -10 75 -3 28 -10
75 -15 105 -5 30 -11 67 -14 82 -3 15 -7 31 -9 35 -3 5 -8 25 -11 45 -22 139
-114 431 -202 638 -33 76 -169 346 -181 358 -7 7 -13 20 -13 28 0 8 -4 14 -9
14 -5 0 -11 8 -14 18 -6 17 -37 72 -47 82 -14 14 -70 102 -70 110 0 6 -4 10
-10 10 -5 0 -10 6 -10 14 0 8 -3 16 -7 18 -5 2 -40 46 -80 98 -73 97 -88 115
-171 209 -138 157 -455 445 -539 489 -12 7 -28 18 -36 26 -8 8 -56 42 -108 75
-52 34 -99 65 -106 71 -7 5 -16 10 -22 10 -5 0 -11 3 -13 8 -6 14 -314 172
-433 221 -106 44 -114 47 -155 61 -19 7 -44 16 -55 20 -96 40 -390 118 -550
145 -16 3 -39 7 -50 9 -20 4 -78 12 -157 21 -24 3 -61 8 -83 11 -41 6 -551 15
-557 10z"/>
</g>
</svg>
